<?xml version="1.0" standalone="no"?>
<!DOCTYPE svg PUBLIC "-//W3C//DTD SVG 20010904//EN"
 "http://www.w3.org/TR/2001/REC-SVG-20010904/DTD/svg10.dtd">
<svg version="1.0" xmlns="http://www.w3.org/2000/svg"
 width="1864.000000pt" height="1864.000000pt" viewBox="0 0 1864.000000 1864.000000"
 preserveAspectRatio="xMidYMid meet">
<metadata>
Created by potrace 1.14, written by Peter Selinger 2001-2017
</metadata>
<g transform="translate(0.000000,1864.000000) scale(0.100000,-0.100000)"
fill="#000000" stroke="none">
<path d="M9027 16144 c-3 -6 -27 -10 -52 -9 -25 0 -45 -2 -45 -5 0 -3 -9 -6
-20 -7 -11 -1 -18 2 -15 7 3 6 -1 7 -9 4 -9 -3 -14 -9 -12 -13 3 -4 -5 -8 -17
-8 -12 -1 -35 -4 -52 -8 -16 -3 -40 -7 -52 -8 -12 -2 -25 -6 -28 -9 -4 -4 -13
-4 -20 -2 -7 3 -16 1 -19 -5 -4 -6 -13 -8 -21 -4 -9 3 -21 1 -28 -4 -6 -5 -22
-8 -34 -7 -13 0 -23 -3 -23 -8 0 -6 -6 -8 -14 -5 -7 3 -19 0 -25 -6 -6 -6 -11
-7 -11 -3 0 5 -8 2 -17 -5 -15 -12 -16 -12 -8 1 7 12 6 13 -7 3 -8 -7 -18 -10
-21 -6 -4 3 -7 1 -7 -6 0 -7 -5 -9 -10 -6 -6 4 -18 1 -26 -6 -8 -6 -17 -9 -20
-6 -4 3 -13 -1 -21 -9 -8 -8 -19 -12 -24 -9 -5 4 -9 1 -9 -5 0 -6 -4 -8 -10
-5 -5 3 -10 1 -10 -5 0 -7 -7 -10 -15 -6 -8 3 -15 1 -15 -5 0 -6 -7 -9 -15 -5
-8 3 -15 2 -15 -3 0 -8 -35 -18 -77 -23 -7 -1 -13 -6 -13 -11 0 -5 -6 -7 -14
-4 -8 3 -16 1 -18 -4 -2 -6 -12 -11 -21 -13 -10 -1 -22 -8 -26 -15 -5 -7 -11
-12 -15 -12 -16 1 -35 -12 -29 -22 3 -6 1 -7 -6 -3 -6 4 -24 -5 -41 -22 -16
-16 -32 -27 -35 -24 -3 3 -5 0 -5 -7 0 -7 -4 -9 -10 -6 -5 3 -10 1 -10 -5 0
-6 -11 -23 -24 -37 -14 -15 -22 -31 -19 -36 4 -6 1 -7 -6 -3 -8 5 -14 0 -18
-13 -3 -11 -10 -18 -15 -14 -6 3 -9 0 -6 -7 2 -8 -4 -22 -14 -32 -10 -10 -18
-25 -18 -33 0 -9 -6 -12 -17 -8 -11 4 -14 3 -9 -5 4 -7 2 -12 -3 -12 -6 0 -10
-3 -9 -7 0 -5 -4 -19 -10 -33 -6 -14 -11 -21 -11 -15 -1 13 -43 -67 -44 -83 0
-7 -6 -11 -14 -8 -11 4 -11 1 -3 -14 8 -15 8 -20 -1 -20 -6 0 -9 -7 -5 -15 3
-8 0 -15 -6 -15 -6 0 -8 -3 -5 -7 4 -3 2 -12 -4 -20 -9 -10 -8 -13 0 -13 7 0
9 -5 5 -12 -9 -14 -12 -98 -4 -98 3 0 5 -15 6 -32 1 -41 16 -117 31 -158 3 -8
8 -24 10 -35 2 -11 8 -22 14 -23 6 -3 5 -10 -3 -20 -7 -10 -8 -14 -4 -10 5 4
20 -16 33 -44 13 -29 30 -56 36 -60 7 -4 8 -8 3 -8 -5 0 -3 -6 3 -13 6 -8 7
-18 3 -22 -4 -5 -2 -5 4 -2 7 4 18 -1 25 -10 10 -12 10 -14 2 -9 -20 11 -15
-2 10 -29 54 -59 63 -71 70 -88 3 -9 11 -17 17 -17 6 0 8 -4 5 -10 -3 -5 1
-10 9 -10 9 0 16 -4 16 -10 0 -11 36 -50 46 -50 10 0 34 -28 34 -40 0 -6 4 -9
9 -5 5 3 17 -2 25 -11 9 -8 16 -12 16 -8 0 4 9 -3 20 -16 11 -13 20 -19 20
-14 0 5 4 5 8 -1 9 -13 42 -34 65 -41 9 -4 17 -10 17 -15 0 -5 7 -9 15 -9 9 0
18 -7 21 -15 4 -8 9 -13 14 -10 9 6 96 -74 102 -95 13 -37 -44 -120 -92 -135
-11 -3 -20 -10 -20 -14 0 -7 -120 -47 -163 -55 -7 -1 -25 -5 -42 -9 -16 -4
-43 -9 -60 -13 -16 -3 -190 -7 -385 -9 -261 -3 -359 0 -369 8 -11 9 -13 9 -8
0 4 -6 3 -14 -3 -18 -5 -3 -10 -3 -10 2 0 4 -30 7 -67 7 -38 -1 -74 4 -82 10
-12 8 -13 8 -7 -2 6 -10 -2 -12 -31 -11 -21 1 -44 7 -50 12 -9 6 -15 4 -19 -7
-4 -10 -11 -13 -18 -8 -13 10 -66 10 -82 -1 -7 -4 -17 0 -24 8 -9 11 -16 12
-26 4 -7 -6 -22 -8 -34 -4 -12 4 -20 2 -20 -6 0 -8 -4 -8 -12 -2 -7 6 -34 9
-60 7 -26 -1 -50 2 -54 7 -4 6 -11 6 -20 -2 -8 -6 -14 -8 -14 -4 0 4 -6 2 -14
-4 -8 -7 -17 -8 -20 -3 -2 4 -41 8 -85 7 -51 -1 -81 3 -81 9 0 7 -3 8 -8 1
-10 -13 -173 -15 -165 -2 4 6 1 7 -8 2 -20 -13 -51 -14 -73 -3 -10 6 -16 6
-13 1 3 -5 -28 -9 -73 -9 -50 1 -76 4 -72 11 3 5 -1 4 -10 -3 -11 -9 -18 -10
-23 -2 -3 6 -12 7 -18 3 -17 -11 -71 -10 -79 2 -5 7 -8 7 -8 0 0 -11 -140 -12
-159 -1 -6 4 -11 3 -11 -3 0 -5 -9 -9 -20 -8 -11 1 -20 5 -20 10 0 6 -5 6 -12
0 -14 -10 -76 -10 -103 1 -9 3 -13 2 -10 -4 3 -6 2 -10 -4 -10 -5 0 -13 5 -16
10 -4 6 -13 7 -23 2 -19 -9 -81 -8 -107 2 -9 3 -13 2 -10 -4 8 -12 3 -12 -29
0 -14 5 -28 5 -31 1 -3 -5 -20 -5 -39 -1 -19 4 -39 4 -46 0 -7 -4 -27 -4 -46
0 -19 4 -32 4 -29 0 5 -7 -90 -4 -112 5 -7 2 -15 0 -18 -5 -4 -7 -13 -7 -24 0
-10 5 -21 6 -25 3 -11 -11 -36 -12 -36 -2 0 6 -8 6 -19 -1 -13 -7 -22 -7 -26
0 -4 7 -13 7 -26 0 -14 -8 -19 -7 -19 1 0 8 -5 7 -17 -2 -18 -16 -23 -16 -33
1 -5 8 -13 9 -21 4 -18 -11 -39 -14 -39 -6 0 9 -63 7 -78 -2 -6 -3 -13 -2 -17
4 -3 5 -11 10 -16 10 -6 0 -8 -3 -6 -7 3 -5 -6 -8 -19 -8 -13 0 -24 3 -24 7 0
8 -41 4 -57 -5 -6 -4 -15 -2 -19 4 -4 8 -9 7 -15 -2 -6 -9 -9 -10 -9 -2 0 12
-17 12 -37 0 -8 -5 -13 -3 -13 3 0 7 -6 8 -19 0 -14 -7 -22 -7 -26 0 -5 8 -11
8 -20 0 -9 -8 -15 -8 -20 0 -3 5 -11 10 -16 10 -6 0 -7 -4 -4 -10 4 -6 -1 -7
-10 -3 -26 10 -139 10 -152 0 -8 -6 -13 -6 -13 0 0 11 -29 11 -47 0 -6 -4 -15
-3 -18 3 -5 8 -11 8 -20 0 -10 -8 -15 -8 -20 0 -5 7 -11 8 -19 1 -7 -6 -17 -6
-26 -1 -9 5 -19 5 -27 -2 -7 -6 -13 -6 -13 -1 0 5 -9 9 -20 10 -13 1 -18 -2
-13 -10 5 -9 3 -9 -8 0 -12 10 -18 10 -27 1 -7 -7 -12 -8 -12 -2 0 14 -33 14
-43 0 -4 -7 -10 -8 -15 -1 -9 12 -82 13 -101 1 -8 -6 -12 -5 -8 0 7 12 -233
11 -252 -1 -9 -5 -12 -4 -7 3 8 13 -51 11 -73 -2 -9 -6 -12 -5 -8 0 3 6 -14
10 -39 10 -24 0 -44 -5 -44 -11 0 -5 -4 -4 -9 3 -4 8 -12 14 -16 14 -4 0 -12
-6 -16 -14 -5 -7 -9 -8 -9 -2 0 12 -98 13 -117 1 -6 -4 -14 -3 -18 3 -3 5 -11
10 -16 10 -6 0 -7 -5 -3 -12 5 -7 3 -8 -7 -3 -18 12 -228 14 -235 3 -3 -4 -11
-5 -17 -1 -7 4 -53 8 -103 9 -50 1 -97 5 -104 9 -9 6 -11 4 -5 -5 6 -10 1 -12
-24 -7 -24 5 -30 4 -25 -6 5 -8 2 -7 -9 2 -13 10 -17 10 -17 1 0 -7 -8 -10
-20 -7 -11 3 -23 0 -27 -5 -4 -7 -1 -8 7 -3 9 5 11 4 6 -4 -6 -9 -11 -9 -22 0
-11 9 -14 8 -14 -2 0 -11 -2 -11 -10 1 -5 8 -10 10 -10 3 0 -6 -13 -10 -29 -9
-16 1 -29 0 -29 -3 2 -19 -4 -24 -12 -11 -8 13 -10 13 -10 -2 0 -12 -5 -15
-16 -11 -10 4 -17 -2 -21 -17 -4 -16 -8 -18 -14 -8 -7 10 -9 9 -9 -5 0 -10 -4
-16 -9 -12 -6 3 -8 -4 -6 -15 2 -11 0 -18 -4 -15 -8 4 -19 -12 -26 -37 -2 -5
-4 -11 -5 -15 -1 -5 -2 -11 -1 -15 0 -4 -3 -18 -9 -32 -6 -17 -5 -26 3 -30 9
-3 9 -7 1 -13 -13 -10 -14 -43 -1 -43 5 0 4 -7 -3 -15 -10 -12 -10 -18 -1 -29
7 -8 8 -17 3 -20 -10 -6 -7 -60 4 -78 4 -7 2 -8 -4 -4 -7 4 -12 2 -12 -3 0 -6
5 -11 10 -11 7 0 7 -6 0 -20 -8 -15 -8 -20 2 -20 10 0 10 -2 -1 -9 -9 -6 -10
-11 -2 -15 6 -4 8 -13 4 -19 -10 -17 -13 -37 -4 -37 4 0 7 -9 7 -20 0 -11 -4
-20 -8 -20 -5 0 -4 -8 1 -18 5 -10 6 -24 1 -32 -4 -7 -4 -24 1 -37 11 -30 11
-36 1 -29 -12 7 -9 -37 2 -46 6 -4 4 -13 -3 -22 -8 -9 -10 -16 -5 -16 11 0 10
-183 -1 -200 -5 -9 -4 -11 3 -6 9 5 10 -7 6 -45 -4 -41 -3 -50 8 -43 10 6 11
5 2 -7 -7 -8 -10 -43 -9 -82 1 -37 -1 -70 -6 -73 -5 -3 -3 -14 4 -25 10 -16 9
-21 -3 -29 -8 -5 -10 -10 -5 -10 15 0 18 -140 2 -140 -8 0 -9 -2 -1 -8 8 -5
11 -55 10 -149 -1 -89 3 -143 9 -143 6 0 4 -4 -4 -9 -11 -7 -11 -9 0 -14 12
-5 12 -6 0 -6 -10 -1 -11 -4 -2 -15 8 -10 9 -16 1 -21 -7 -4 -7 -12 0 -26 8
-14 7 -19 -1 -19 -9 0 -9 -3 0 -14 8 -10 9 -16 1 -21 -6 -3 -7 -11 -4 -17 10
-16 10 -78 1 -78 -5 0 -5 -5 -1 -12 11 -18 10 -68 -1 -68 -7 0 -7 -3 0 -8 13
-9 14 -92 0 -92 -6 0 -7 -3 0 -8 6 -4 10 -14 10 -22 0 -8 -4 -18 -10 -22 -5
-4 -1 -8 10 -8 12 0 16 -3 9 -8 -15 -10 -14 -213 0 -205 8 5 8 2 0 -8 -15 -20
-16 -69 -1 -69 8 0 9 -3 1 -8 -14 -9 -13 -62 1 -62 6 0 7 -3 0 -8 -13 -9 -14
-55 0 -64 6 -5 6 -8 0 -8 -5 0 -10 -20 -11 -45 -1 -25 4 -45 9 -45 6 0 2 -9
-9 -21 -10 -11 -14 -20 -9 -19 24 5 27 -1 10 -20 -18 -20 -18 -21 -1 -14 17 6
17 5 5 -17 -15 -28 -15 -29 3 -40 10 -7 10 -9 0 -9 -8 0 -10 -5 -5 -12 10 -17
10 -39 0 -60 -5 -12 -4 -18 5 -18 8 0 9 -3 3 -8 -13 -9 -16 -42 -4 -42 5 0 4
-11 -1 -25 -7 -17 -6 -25 1 -25 8 0 7 -5 -1 -15 -7 -9 -8 -15 -2 -15 11 0 11
-18 -1 -37 -5 -8 -3 -13 3 -13 7 0 8 -7 3 -17 -5 -10 -8 -27 -8 -38 1 -11 -3
-26 -8 -32 -5 -7 -7 -13 -3 -13 3 0 0 -15 -7 -33 -8 -17 -13 -40 -11 -50 1 -9
-2 -17 -7 -17 -6 0 -7 -4 -4 -10 3 -5 2 -10 -3 -10 -5 0 -8 -14 -7 -30 1 -19
-4 -34 -14 -40 -14 -8 -14 -9 -1 -10 11 0 12 -2 3 -8 -12 -8 -24 -54 -24 -94
0 -10 -4 -20 -10 -23 -5 -4 -9 -15 -9 -26 0 -10 -3 -19 -7 -19 -5 0 -9 -12
-10 -27 0 -15 -6 -29 -12 -31 -6 -2 -9 -8 -5 -13 3 -5 -2 -16 -11 -25 -9 -9
-14 -22 -11 -29 2 -7 -13 -19 -37 -29 -23 -10 -52 -22 -64 -28 -17 -8 -26 -8
-40 3 -15 12 -16 12 -8 -1 5 -8 -37 31 -93 88 -56 56 -105 102 -108 102 -11 0
-33 28 -27 34 4 3 -1 6 -10 6 -9 0 -17 5 -17 10 0 6 -7 10 -16 10 -8 0 -12 5
-9 10 3 6 -1 10 -9 10 -9 0 -16 5 -16 12 0 6 -3 8 -7 5 -3 -4 -17 3 -30 15
-13 12 -23 18 -23 14 0 -4 -7 0 -16 8 -8 9 -20 14 -25 11 -5 -4 -9 -2 -9 2 0
9 -59 37 -72 34 -5 0 -8 4 -8 10 0 5 -4 8 -9 5 -4 -3 -17 1 -27 9 -10 8 -27
15 -37 15 -10 0 -15 5 -12 10 3 6 -3 10 -14 10 -28 0 -52 11 -45 21 3 5 -2 6
-10 3 -9 -3 -16 -2 -16 4 0 5 -6 10 -13 9 -30 -1 -48 4 -43 11 2 4 -7 9 -22
10 -14 1 -28 5 -31 10 -6 6 -14 8 -63 14 -10 1 -18 6 -18 10 0 3 -8 7 -17 6
-23 0 -60 9 -75 18 -7 5 -8 3 -3 -6 6 -9 4 -11 -6 -4 -7 4 -28 9 -45 9 -17 1
-36 5 -42 9 -7 4 -12 3 -12 -1 0 -5 -19 -9 -43 -10 -80 -1 -164 -14 -186 -27
-11 -7 -12 -6 -6 5 8 12 6 12 -8 1 -9 -8 -20 -11 -25 -8 -6 3 -15 -1 -22 -9
-7 -8 -21 -15 -31 -15 -11 0 -19 -5 -19 -11 0 -6 -6 -9 -14 -6 -8 3 -17 -1
-20 -9 -3 -8 -12 -14 -21 -14 -8 0 -15 -5 -15 -11 0 -5 -4 -7 -10 -4 -5 3 -10
2 -10 -3 0 -5 -11 -15 -25 -22 -14 -7 -25 -20 -25 -27 0 -8 -3 -12 -7 -10 -5
2 -16 -4 -25 -15 -10 -10 -15 -18 -10 -18 4 -1 -4 -7 -18 -15 -14 -8 -22 -14
-18 -15 5 0 -10 -18 -31 -39 -22 -22 -37 -42 -34 -45 3 -3 -2 -8 -11 -12 -9
-3 -16 -11 -16 -16 0 -6 -8 -17 -17 -25 -10 -8 -11 -11 -4 -7 9 5 6 -4 -7 -23
-12 -17 -19 -33 -15 -37 3 -3 0 -6 -8 -6 -11 0 -11 -2 1 -10 13 -8 13 -10 -2
-10 -11 0 -15 -5 -12 -15 4 -8 1 -15 -4 -15 -6 0 -9 -9 -7 -20 2 -11 -1 -20
-7 -20 -6 0 -8 -3 -5 -7 4 -3 0 -17 -8 -30 -12 -17 -12 -23 -3 -23 9 0 8 -3
-2 -10 -8 -5 -10 -10 -5 -10 6 0 2 -5 -8 -11 -9 -6 -15 -14 -12 -19 3 -5 1
-11 -5 -15 -6 -4 -8 -11 -5 -16 4 -5 1 -9 -5 -9 -6 0 -8 -4 -5 -10 3 -5 2 -10
-2 -10 -5 0 -9 -8 -10 -17 -1 -16 -7 -38 -29 -118 -3 -11 -6 -29 -5 -39 0 -11
-4 -27 -10 -38 -7 -13 -6 -18 3 -18 8 0 9 -3 3 -8 -5 -4 -10 -24 -10 -44 0
-21 -4 -38 -10 -38 -7 0 -7 -3 0 -8 6 -4 10 -34 10 -67 0 -33 3 -74 6 -92 4
-18 2 -36 -4 -42 -8 -8 -7 -11 2 -11 11 0 11 -3 1 -15 -7 -8 -10 -24 -7 -35 3
-11 2 -20 -2 -20 -4 0 -6 -22 -6 -50 0 -28 -4 -50 -10 -50 -7 0 -7 -3 0 -8 6
-4 11 -32 12 -62 3 -64 12 -150 18 -167 2 -6 1 -14 -3 -18 -4 -3 -7 -48 -7
-99 -1 -50 -5 -98 -10 -106 -6 -9 -4 -11 4 -5 9 5 12 1 10 -11 -2 -11 0 -24 4
-31 4 -6 3 -15 -3 -18 -8 -5 -8 -11 0 -19 5 -7 11 -26 12 -42 1 -16 5 -33 9
-39 4 -5 9 -23 10 -40 2 -16 8 -33 13 -36 5 -4 9 -18 9 -33 0 -14 3 -23 8 -20
5 3 9 -4 9 -15 0 -12 5 -21 12 -21 6 0 8 -3 5 -7 -4 -3 0 -17 9 -31 9 -13 11
-21 4 -17 -7 4 -5 -3 3 -16 9 -13 16 -27 17 -31 0 -5 0 -9 1 -10 0 -2 2 -10 4
-18 2 -8 9 -28 16 -45 7 -16 13 -33 13 -37 1 -4 9 -17 19 -28 9 -11 17 -24 17
-29 0 -17 27 -61 33 -54 4 3 7 1 7 -5 0 -16 37 -52 45 -44 3 4 3 -2 -1 -12 -5
-14 -4 -17 4 -12 7 4 12 4 12 -1 1 -13 74 -88 93 -96 11 -4 15 -12 11 -18 -4
-8 -3 -9 4 -5 7 4 12 2 12 -3 0 -6 7 -11 15 -11 8 0 15 -4 15 -10 0 -5 7 -10
15 -10 8 0 15 -4 15 -10 0 -5 9 -10 20 -10 11 0 20 -5 20 -11 0 -5 4 -8 9 -4
5 3 15 0 23 -7 7 -7 22 -15 33 -16 11 -2 26 -9 34 -15 12 -10 13 -9 6 3 -7 12
-6 13 6 3 9 -7 37 -14 62 -15 26 -2 47 -5 47 -8 0 -3 26 -5 57 -4 32 0 70 -3
86 -7 19 -5 25 -4 21 3 -5 8 -1 9 11 5 9 -4 24 -2 31 4 8 6 14 7 14 2 0 -10
73 5 95 18 6 4 18 5 28 4 9 -2 17 1 17 6 0 5 3 8 8 7 14 -3 91 22 97 32 4 6
11 8 16 5 5 -4 9 0 9 7 0 9 3 9 10 -2 6 -10 10 -11 10 -2 0 6 7 12 15 12 8 0
15 5 15 11 0 5 4 8 10 4 9 -6 40 9 74 35 14 11 17 11 11 1 -5 -9 1 -8 18 4 15
9 32 13 38 9 7 -4 9 -3 5 4 -3 6 8 15 29 22 19 6 35 16 35 21 0 5 9 9 20 9 11
0 20 5 20 10 0 6 5 10 12 10 6 0 26 11 45 26 18 14 33 22 33 19 0 -4 17 11 37
32 20 21 33 31 29 23 -5 -9 -2 -8 7 2 8 10 18 14 22 10 5 -4 5 -1 1 6 -4 7 -1
15 8 18 9 3 16 12 16 20 0 8 3 13 8 12 10 -4 98 82 94 93 -1 5 2 9 8 9 5 0 20
10 32 22 21 21 78 33 78 17 0 -4 13 -9 29 -12 31 -6 84 -55 75 -69 -3 -4 0 -8
6 -8 7 0 10 -7 6 -15 -3 -8 0 -15 6 -15 6 0 8 -3 5 -7 -4 -3 -2 -12 4 -20 6
-7 8 -13 3 -13 -5 0 -3 -4 4 -8 7 -5 14 -23 15 -40 1 -18 5 -32 9 -32 4 0 5
-7 2 -15 -4 -8 -1 -15 4 -15 6 0 9 -9 7 -20 -2 -11 0 -22 6 -25 5 -4 9 -17 9
-30 0 -13 4 -26 8 -29 5 -3 8 -19 7 -35 -1 -18 2 -28 8 -24 6 4 8 0 4 -10 -4
-10 -1 -17 5 -17 6 0 9 -2 6 -6 -9 -8 21 -97 35 -106 9 -6 8 -8 -3 -8 -11 0
-12 -2 -2 -8 7 -5 13 -29 14 -54 1 -26 6 -44 11 -41 5 3 5 -3 0 -13 -12 -23
-11 -114 1 -133 6 -9 5 -12 0 -8 -6 3 -10 -31 -9 -89 0 -53 -3 -98 -7 -100 -5
-3 -5 -11 -1 -17 10 -17 11 -147 1 -147 -5 0 -6 -5 -2 -12 9 -15 9 -201 0
-216 -4 -7 -3 -12 2 -12 5 0 9 -7 9 -15 0 -8 -5 -15 -11 -15 -6 0 -4 -5 4 -10
11 -7 11 -10 2 -10 -10 0 -10 -5 -1 -21 6 -12 7 -24 3 -28 -12 -8 -11 -34 1
-43 6 -5 4 -8 -5 -8 -13 0 -13 -1 0 -10 13 -9 13 -10 0 -10 -13 0 -13 -1 0
-10 11 -7 11 -10 2 -10 -10 0 -10 -5 -2 -20 6 -11 7 -20 2 -20 -11 0 -9 -114
3 -122 7 -5 7 -8 0 -8 -7 0 -10 -34 -8 -90 1 -63 -2 -90 -10 -90 -9 0 -8 -3 0
-8 14 -9 13 -68 -1 -91 -6 -9 -5 -12 2 -7 7 4 10 -4 10 -23 -1 -19 -5 -28 -12
-24 -8 5 -8 3 0 -8 12 -17 12 -78 0 -98 -6 -9 -5 -12 0 -8 6 3 10 -18 10 -54
-1 -32 -5 -59 -10 -59 -5 0 -2 -8 5 -17 12 -15 12 -16 -1 -8 -13 8 -13 7 -1
-8 11 -14 11 -20 0 -34 -12 -15 -12 -16 1 -8 13 8 13 7 1 -8 -7 -9 -9 -17 -4
-17 11 0 11 -56 0 -66 -4 -4 -2 -13 4 -21 6 -7 7 -13 2 -13 -5 0 -10 -7 -10
-15 0 -8 5 -15 10 -15 5 0 4 -7 -3 -15 -7 -8 -9 -15 -4 -15 5 0 9 -11 9 -25 0
-14 -3 -25 -7 -25 -8 0 -5 -21 5 -37 5 -7 4 -13 -1 -13 -5 0 -9 -7 -9 -15 0
-8 5 -15 10 -15 5 0 4 -7 -3 -15 -10 -12 -10 -15 0 -15 10 0 10 -3 0 -15 -9
-11 -10 -18 -1 -28 6 -8 7 -17 3 -21 -10 -11 -9 -30 3 -39 7 -5 7 -9 0 -15
-14 -9 -14 -125 0 -134 7 -5 7 -8 0 -8 -6 0 -11 -9 -12 -20 -1 -13 2 -18 10
-13 7 3 3 -4 -8 -17 -11 -13 -15 -20 -8 -17 8 5 10 -6 7 -43 -3 -36 0 -50 8
-50 10 0 10 -2 1 -8 -14 -9 -13 -52 2 -52 5 0 4 -4 -3 -8 -9 -6 -12 -37 -10
-115 2 -59 -1 -107 -5 -107 -5 0 -5 -4 -2 -10 11 -17 14 -50 5 -50 -5 0 -5
-12 -1 -27 3 -16 6 -43 5 -60 -1 -20 3 -33 9 -33 7 0 6 -5 -3 -10 -8 -5 -10
-10 -5 -10 6 0 11 -10 12 -22 1 -12 10 -26 19 -31 13 -8 14 -11 3 -18 -10 -6
-9 -10 6 -15 27 -11 47 -32 41 -43 -4 -5 5 -8 19 -7 13 2 22 -1 19 -5 -3 -5 2
-9 10 -9 9 0 16 -4 16 -8 0 -9 9 -10 92 -15 32 -2 60 -6 64 -10 4 -3 15 -2 25
3 12 7 20 7 24 0 5 -8 11 -8 20 0 10 8 15 8 20 0 5 -8 11 -8 21 1 8 6 14 8 14
3 0 -11 51 -10 68 0 7 4 12 3 12 -1 0 -12 53 -10 62 2 5 6 8 6 8 -1 0 -27 61
2 120 56 34 32 63 57 64 56 1 0 21 17 45 39 25 22 56 50 70 62 32 27 125 109
163 143 15 14 34 30 41 36 52 45 173 150 177 154 3 3 57 51 120 105 63 55 117
102 120 106 21 24 192 160 218 173 47 24 84 18 96 -17 9 -25 4 -41 -38 -120
-84 -159 -189 -361 -204 -392 -8 -16 -24 -42 -34 -57 -11 -16 -16 -28 -12 -28
3 0 2 -6 -3 -12 -6 -7 -24 -38 -40 -68 -140 -255 -173 -310 -209 -349 -13 -14
-24 -29 -24 -33 0 -4 -15 -33 -34 -65 -18 -32 -49 -88 -70 -125 -20 -38 -52
-98 -72 -135 -21 -38 -40 -72 -44 -78 -4 -5 -33 -59 -65 -120 -32 -60 -63
-113 -69 -117 -6 -4 -7 -8 -2 -8 5 0 4 -6 -1 -12 -6 -7 -26 -42 -45 -78 -20
-36 -55 -101 -79 -145 -23 -44 -68 -125 -98 -181 -31 -55 -69 -127 -86 -160
-16 -32 -32 -61 -36 -64 -3 -3 -17 -28 -31 -56 -14 -27 -35 -66 -45 -85 -11
-19 -41 -74 -68 -124 -27 -49 -52 -91 -57 -93 -4 -2 -8 -9 -8 -15 0 -13 -8
-28 -57 -117 -17 -30 -47 -86 -68 -125 -21 -38 -50 -92 -65 -120 -15 -27 -73
-138 -128 -246 l-101 -196 17 -33 c32 -63 48 -66 140 -20 45 23 84 40 88 40 4
-1 10 2 13 7 8 11 369 213 382 213 5 0 9 5 9 10 0 6 4 10 9 10 9 0 132 68 489
271 96 55 176 99 180 99 3 0 13 6 21 14 9 7 43 28 76 45 33 18 75 41 92 51 18
11 33 16 33 12 0 -4 4 -2 8 4 6 9 127 84 136 84 2 0 81 45 176 100 95 55 174
100 176 100 2 0 46 25 99 55 52 30 97 55 100 55 3 0 11 5 18 10 7 6 147 87
312 181 375 214 376 214 428 243 23 13 291 166 595 340 305 174 558 316 563
316 5 0 9 5 9 10 0 6 4 10 9 10 5 0 65 32 133 71 122 71 147 85 263 149 33 18
67 39 76 46 8 8 19 14 24 14 4 0 30 13 56 30 27 16 53 29 57 29 4 -1 9 0 12 1
15 6 100 4 100 -3 0 -4 9 -3 19 3 14 7 21 6 24 -3 3 -9 7 -9 19 1 11 9 18 10
23 2 4 -7 12 -7 25 0 10 6 21 6 24 1 6 -9 48 -7 65 3 5 4 13 1 17 -5 4 -8 9
-7 15 2 5 8 9 9 9 4 0 -12 90 -13 108 -1 7 4 12 4 12 -1 0 -4 65 -8 145 -9
101 0 142 3 138 10 -4 6 3 2 15 -8 12 -11 22 -14 22 -9 0 12 70 10 90 -2 9 -6
11 -4 5 5 -5 9 -2 10 13 6 11 -4 42 -2 68 4 27 6 67 14 89 16 77 10 238 54
272 75 19 12 52 40 73 62 40 41 39 36 26 127 -5 32 -29 66 -63 90 -19 13 -49
38 -67 54 -39 37 -166 136 -175 136 -3 0 -21 14 -40 30 -18 17 -36 30 -40 30
-3 0 -38 30 -78 68 -76 71 -116 139 -166 277 -61 171 -67 274 -22 400 43 119
62 154 142 257 69 88 177 182 268 233 64 36 427 153 525 170 19 3 60 10 90 15
30 5 93 12 140 15 47 4 126 11 175 17 125 14 300 18 360 9 28 -5 91 -12 140
-16 167 -13 250 -21 300 -31 11 -2 40 -6 65 -10 25 -3 76 -17 115 -31 38 -13
79 -27 90 -30 182 -49 352 -117 363 -145 2 -4 8 -8 14 -8 21 0 187 -152 188
-172 0 -4 6 -13 13 -20 46 -47 92 -124 128 -216 36 -92 42 -117 42 -182 0 -41
-8 -104 -17 -140 -10 -36 -19 -72 -21 -80 -8 -36 -35 -101 -73 -176 -30 -60
-55 -93 -99 -132 -87 -76 -94 -82 -190 -149 -48 -35 -112 -85 -142 -113 -30
-27 -58 -50 -62 -50 -3 0 -20 -14 -37 -31 -35 -36 -57 -114 -43 -151 14 -36
74 -93 122 -116 42 -20 193 -58 269 -68 56 -7 107 -23 118 -37 8 -9 36 -12 91
-11 54 1 79 -2 74 -9 -4 -6 -1 -7 7 -2 22 13 64 14 79 2 8 -7 12 -7 9 -2 -4 7
21 11 73 11 43 0 79 -5 79 -9 0 -5 7 -4 16 4 13 10 17 10 24 0 5 -9 10 -10 14
-2 5 7 15 7 32 1 14 -6 23 -6 20 -1 -3 4 8 8 24 7 17 -1 30 -5 30 -11 0 -7 3
-7 8 0 9 12 52 15 52 3 0 -5 8 -4 18 1 13 7 22 7 29 0 8 -8 13 -8 17 0 5 7 15
7 31 1 16 -6 25 -6 25 1 0 6 6 6 18 0 13 -7 23 -6 30 1 9 9 12 9 12 -1 0 -10
3 -11 14 -2 8 7 16 8 19 4 6 -10 79 -9 95 1 7 4 12 3 12 -2 0 -12 32 -12 48 1
6 5 12 5 12 0 0 -11 121 -10 139 2 9 5 12 4 8 -2 -4 -7 5 -10 26 -9 17 2 38
-2 46 -8 11 -8 13 -8 7 2 -6 10 1 12 34 7 33 -5 40 -3 34 7 -6 10 -5 10 7 2 9
-7 77 -11 191 -10 113 1 178 -3 178 -9 0 -5 5 -3 10 5 8 13 11 12 25 -5 8 -11
15 -15 14 -10 -3 22 2 27 16 15 12 -10 15 -10 15 1 0 11 2 11 10 -1 7 -11 10
-11 10 -2 0 10 5 10 20 2 11 -6 20 -7 20 -3 0 7 35 7 133 0 20 -1 37 2 37 7 0
4 7 3 15 -4 12 -10 15 -10 15 0 0 9 7 7 22 -6 12 -10 19 -14 15 -8 -9 15 205
15 215 0 6 -8 8 -8 8 0 0 12 58 13 76 2 6 -4 14 -4 18 -1 12 13 48 14 40 1 -5
-7 -3 -8 7 -2 22 13 49 15 49 3 0 -8 5 -8 15 1 11 9 18 10 28 1 8 -6 17 -8 21
-4 11 11 46 10 46 -1 0 -7 3 -8 8 -1 8 12 47 14 57 3 4 -4 16 -3 26 3 13 7 19
6 19 -1 0 -7 6 -8 19 0 13 7 22 7 26 0 4 -7 13 -7 26 0 14 8 19 7 19 -1 0 -8
4 -8 15 1 12 10 15 10 15 0 0 -10 3 -10 14 -1 10 9 16 9 21 1 5 -8 11 -8 21 1
11 9 14 9 14 -1 0 -10 3 -10 15 0 12 10 15 10 15 0 0 -10 3 -10 14 -1 10 9 16
9 21 1 5 -8 11 -8 21 1 9 7 14 8 14 1 0 -11 18 -11 38 1 7 5 12 4 12 -2 0 -13
22 -10 32 4 5 6 8 6 8 -1 0 -12 28 -12 47 -1 6 4 14 4 17 -1 6 -9 67 -9 83 1
6 4 13 3 17 0 12 -12 56 -11 56 1 0 7 3 7 8 1 4 -5 18 -11 31 -13 17 -3 21 0
16 10 -6 10 -5 10 5 1 7 -6 19 -9 28 -6 11 5 13 3 7 -8 -7 -11 -6 -12 6 -3 8
5 24 9 37 8 12 0 22 4 22 10 0 6 5 3 10 -6 8 -12 17 -15 38 -9 15 4 42 6 61 4
25 -3 31 -1 26 9 -3 7 1 4 9 -6 9 -11 16 -16 16 -10 0 12 153 12 162 -1 5 -7
8 -6 8 0 0 10 90 10 133 1 9 -2 17 1 17 7 0 7 5 5 10 -3 6 -9 10 -11 10 -3 0
7 6 10 13 8 28 -11 227 -11 227 -1 0 7 3 8 8 1 4 -6 53 -10 112 -10 62 1 108
-3 112 -10 5 -7 8 -7 8 1 0 7 55 10 168 8 92 -1 172 -3 177 -4 6 -1 12 -1 15
0 20 7 40 7 40 -1 0 -6 6 -7 12 -2 16 9 47 10 74 1 12 -4 27 -1 33 5 8 8 11 8
11 -2 0 -10 3 -11 13 -2 8 6 17 8 20 4 10 -9 67 -10 67 0 0 9 23 4 32 -7 4 -6
13 -4 22 3 9 8 16 9 16 4 0 -10 47 -9 57 1 4 3 12 1 20 -5 10 -9 13 -8 13 2 0
9 3 10 8 4 9 -13 102 -14 102 -2 0 6 5 6 13 0 13 -10 96 -8 136 3 66 19 93 33
85 46 -4 7 -3 8 5 4 13 -9 43 18 33 29 -4 5 1 5 10 2 10 -3 17 -3 16 1 -5 18
14 52 25 45 7 -4 6 1 -2 10 -9 12 -10 17 -2 17 7 0 10 4 6 9 -3 5 0 13 6 17 8
4 7 9 -2 15 -8 5 -9 9 -4 9 6 0 11 29 12 70 0 46 -3 67 -10 63 -6 -4 -7 -1 -1
8 12 20 12 139 -1 139 -5 0 -4 4 3 9 17 11 17 21 0 32 -7 5 -8 9 -2 9 6 0 11
7 11 15 0 8 -3 15 -7 15 -4 0 -7 7 -7 15 0 8 5 15 10 15 5 0 4 7 -3 15 -10 12
-10 15 1 15 10 0 10 3 1 12 -7 7 -8 17 -1 30 5 10 6 18 1 18 -5 0 -9 7 -9 15
0 8 5 15 10 15 5 0 3 8 -4 17 -12 14 -12 16 0 8 11 -6 12 -5 5 6 -13 21 -14
39 -1 39 8 0 9 3 1 8 -6 4 -10 21 -10 37 0 17 4 33 10 37 7 5 7 8 -2 8 -9 0
-11 7 -7 19 3 11 1 22 -4 25 -6 4 -7 14 -4 23 8 20 8 81 1 89 -4 3 -2 18 2 34
4 16 6 31 3 34 -3 3 -6 59 -5 126 0 66 -4 123 -9 126 -5 3 -6 11 -2 17 10 17
10 127 -1 127 -4 0 -3 6 3 14 8 10 9 16 1 21 -7 4 -7 12 0 26 8 13 7 19 0 19
-6 0 -8 5 -3 12 8 14 11 78 3 78 -3 0 -5 18 -6 39 0 22 4 38 8 35 4 -3 4 6 -1
19 -5 13 -5 30 -1 37 5 8 6 19 2 24 -11 19 -9 946 2 939 6 -4 5 1 -3 11 -13
15 -13 19 0 27 8 5 9 9 4 9 -9 0 -12 81 -5 100 1 3 1 10 0 15 -7 34 -6 55 4
55 7 0 7 3 1 8 -13 9 -19 46 -6 38 6 -4 7 4 1 24 -6 21 -5 30 3 30 8 0 8 3 2
8 -12 8 -13 42 -2 60 5 7 3 12 -3 12 -8 0 -8 6 0 20 6 11 7 20 2 20 -5 0 -5
24 -2 53 4 28 3 54 -1 55 -5 2 -7 8 -3 13 3 5 7 45 8 90 2 45 7 84 12 88 8 5
11 21 15 71 1 8 5 20 9 25 4 6 6 18 5 28 -2 9 0 17 4 17 4 0 8 6 9 13 0 6 6
30 12 52 6 22 13 49 15 60 2 11 4 22 5 25 1 3 2 8 1 13 0 4 3 7 8 7 5 0 8 8 7
17 -2 10 3 24 11 31 7 8 11 18 8 23 -4 5 -1 9 5 9 6 0 8 5 5 10 -3 6 -1 10 4
10 6 0 11 6 11 14 0 8 9 18 20 21 12 4 17 11 14 18 -4 7 -4 9 0 5 4 -3 22 -2
39 4 18 5 39 11 47 12 21 5 52 -13 45 -25 -4 -5 -3 -8 2 -7 12 4 142 -129 135
-138 -4 -4 -2 -4 5 -1 6 4 20 -4 31 -18 11 -14 24 -25 29 -25 5 0 15 -9 23
-20 8 -11 20 -20 26 -20 7 0 21 -11 32 -25 11 -13 22 -21 26 -18 3 3 6 1 6 -6
0 -7 4 -10 9 -6 5 3 16 -2 24 -10 9 -8 23 -15 31 -15 9 0 16 -3 16 -7 0 -9 49
-33 67 -33 7 0 13 -5 13 -11 0 -5 5 -7 10 -4 6 3 10 1 10 -5 0 -6 5 -8 10 -5
6 3 10 1 10 -5 0 -6 5 -8 10 -5 6 3 10 1 10 -4 0 -6 3 -10 8 -9 15 4 82 -24
77 -33 -4 -5 1 -6 9 -3 9 3 16 2 16 -4 0 -5 6 -10 13 -9 30 1 48 -4 43 -11 -2
-4 7 -9 21 -10 13 -1 30 -5 36 -9 12 -8 29 -12 60 -15 9 -1 17 -5 17 -8 0 -4
6 -7 13 -7 12 -1 69 -10 97 -16 8 -1 21 -7 29 -11 9 -6 12 -5 7 2 -8 14 46 11
56 -3 5 -6 8 -6 8 1 0 8 19 11 55 10 30 -1 55 1 55 5 0 4 11 6 25 5 14 -2 37
3 51 10 23 12 25 12 20 -1 -5 -13 -2 -13 19 1 13 9 30 12 36 8 8 -4 9 -3 5 4
-5 8 0 12 13 12 12 0 21 4 21 9 0 6 9 8 20 6 11 -2 20 0 20 6 0 5 6 9 14 9 8
0 16 4 18 9 2 5 9 11 17 13 8 2 30 18 49 36 18 18 38 29 44 26 7 -4 8 -2 4 4
-4 7 -2 12 4 12 6 0 15 11 22 25 6 13 15 22 19 19 5 -3 9 0 9 6 0 17 52 70 62
64 5 -3 8 -2 7 3 -3 18 1 36 8 30 3 -4 11 3 18 16 7 12 22 39 34 60 12 21 19
42 16 48 -4 5 -1 9 5 9 6 0 8 5 5 10 -3 6 -1 10 4 10 6 0 10 3 9 8 -4 19 15
61 26 55 7 -4 6 -1 -2 9 -10 12 -9 18 3 28 13 11 13 15 3 21 -11 7 -11 9 0 9
7 0 11 4 8 9 -3 5 1 12 9 15 8 3 14 9 13 13 0 4 4 21 10 36 7 16 12 37 12 48
0 11 4 18 9 14 6 -3 8 4 6 15 -2 11 0 20 5 20 4 0 7 8 5 18 -1 9 2 22 7 29 5
7 7 17 4 22 -4 5 -1 13 5 17 8 4 7 9 -2 15 -9 6 -10 9 -2 9 6 0 12 8 12 18 0
9 2 26 4 37 2 11 -1 26 -7 34 -8 11 -8 13 1 8 9 -6 11 15 10 83 -1 49 -6 90
-10 90 -4 0 -3 9 3 20 8 15 8 20 -1 20 -6 0 -8 7 -5 17 7 16 19 110 19 143 0
8 5 18 11 22 7 6 8 10 1 15 -6 5 -11 40 -12 78 -3 87 -10 152 -18 165 -3 6 0
10 7 10 9 0 9 3 -2 10 -8 5 -10 10 -5 10 7 0 10 51 10 139 0 77 -4 137 -8 134
-5 -3 -7 3 -6 13 2 11 0 25 -5 33 -7 11 -6 12 5 6 11 -7 12 -6 3 6 -6 8 -10
22 -9 32 2 9 0 15 -5 12 -4 -2 -8 7 -9 20 -3 48 -4 55 -13 55 -4 0 -8 9 -8 20
0 11 -5 20 -12 20 -6 0 -8 3 -5 7 4 3 1 13 -6 21 -10 13 -9 14 3 7 9 -5 7 1
-5 14 -11 13 -19 26 -19 30 2 8 -13 52 -26 74 -7 12 -7 17 2 17 10 0 10 2 0 9
-7 4 -15 14 -16 22 -8 41 -56 139 -68 139 -5 0 -6 5 -3 10 3 6 1 10 -6 10 -7
0 -10 2 -7 5 3 3 -18 30 -46 60 -28 29 -66 70 -83 90 -18 20 -33 34 -33 30 0
-4 -14 8 -31 26 -17 19 -28 27 -24 19 3 -8 0 -7 -9 4 -8 10 -19 15 -24 12 -6
-3 -13 1 -16 10 -3 9 -13 14 -20 11 -8 -3 -17 1 -20 9 -3 9 -10 13 -15 9 -5
-3 -26 4 -46 15 -20 11 -33 15 -29 8 6 -9 3 -9 -9 1 -9 7 -17 10 -17 6 0 -4
-6 -3 -13 4 -10 8 -17 7 -27 -2 -10 -10 -12 -9 -7 6 6 15 4 16 -14 6 -17 -9
-23 -8 -30 2 -7 11 -9 11 -9 1 0 -8 -5 -10 -12 -5 -7 4 -31 8 -53 8 -23 1 -46
5 -53 9 -7 4 -12 3 -12 -1 0 -5 -19 -10 -42 -11 -94 -5 -108 -7 -108 -15 0 -5
-4 -6 -9 -2 -5 3 -12 1 -16 -4 -3 -5 -14 -8 -25 -6 -11 2 -20 0 -20 -6 0 -5
-5 -9 -11 -9 -5 0 -7 6 -4 13 4 6 0 4 -8 -6 -8 -10 -29 -19 -46 -19 -17 -1
-28 -5 -25 -10 3 -4 -4 -8 -15 -8 -12 0 -21 -4 -21 -9 0 -6 -9 -8 -20 -6 -11
2 -20 -1 -20 -7 0 -6 -3 -9 -6 -5 -4 3 -13 -1 -21 -9 -8 -8 -18 -12 -23 -9 -5
3 -11 1 -15 -5 -4 -6 -11 -8 -16 -5 -5 4 -9 1 -9 -4 0 -6 -7 -11 -15 -11 -8 0
-15 -4 -15 -9 0 -6 -9 -8 -20 -6 -13 2 -20 -2 -20 -11 0 -8 -4 -13 -9 -9 -11
6 -61 -15 -61 -27 0 -4 -9 -8 -20 -8 -11 0 -20 -4 -20 -10 0 -5 -6 -10 -13
-10 -7 0 -23 -9 -36 -21 -12 -12 -25 -19 -27 -16 -3 3 -19 -8 -35 -24 -16 -16
-34 -29 -40 -29 -6 0 -8 -4 -4 -9 3 -5 -3 -12 -13 -15 -10 -4 -25 -17 -32 -31
-7 -13 -16 -24 -19 -23 -20 2 -31 -3 -26 -12 3 -5 1 -10 -5 -10 -6 0 -8 -4 -5
-10 3 -5 0 -10 -8 -10 -7 0 -26 -15 -42 -34 -16 -19 -33 -33 -37 -30 -7 5 -12
-10 -9 -28 0 -5 -5 -9 -11 -9 -46 -5 -68 -4 -68 3 0 4 -3 7 -7 7 -20 -4 -73
25 -78 42 -4 11 -11 16 -18 13 -7 -4 -9 -4 -5 1 4 4 3 14 -3 22 -6 7 -9 13 -5
13 4 0 -1 14 -9 30 -9 17 -13 35 -10 39 3 5 0 11 -5 13 -6 2 -12 20 -13 40 -1
20 -5 34 -9 31 -5 -2 -9 1 -9 6 -1 6 -2 19 -4 29 -1 9 -4 24 -8 32 -7 20 -19
86 -23 133 -2 27 0 36 9 30 9 -5 9 -3 1 8 -16 20 -16 139 -1 139 8 0 8 3 2 8
-14 10 -17 74 -3 66 7 -5 8 -2 3 7 -13 20 -13 89 -1 89 6 0 5 4 -2 9 -8 4 -14
12 -14 16 0 4 6 12 14 16 8 6 9 9 1 9 -12 0 -11 39 2 60 5 8 4 11 -3 6 -11 -7
-11 39 1 51 4 3 2 12 -4 19 -6 7 -6 14 -1 18 6 3 7 21 3 38 -8 44 -7 70 4 87
5 10 4 16 -3 19 -9 3 -9 9 -1 24 8 16 8 19 -1 13 -9 -6 -9 -2 0 15 10 18 9 24
-1 31 -8 5 -10 12 -3 21 5 7 9 86 9 175 -1 100 3 159 9 156 5 -4 6 -1 0 8 -12
20 -12 379 1 379 6 0 3 5 -5 10 -11 7 -11 10 -2 10 9 0 10 5 2 19 -7 14 -7 22
1 27 8 4 7 9 -2 15 -8 5 -9 9 -4 9 11 0 12 141 1 158 -3 5 1 13 10 16 15 6 15
8 -1 26 -10 11 -14 20 -9 20 5 0 9 42 8 92 -1 58 3 96 10 100 8 6 7 8 -1 8 -7
0 -10 7 -6 17 4 11 3 14 -5 9 -8 -5 -10 -2 -6 8 3 9 11 13 18 9 8 -5 8 -3 0 8
-12 17 -12 78 0 98 6 9 5 12 0 8 -6 -3 -10 18 -10 54 1 32 5 59 10 59 5 0 3 7
-4 15 -10 12 -10 15 1 15 12 0 12 2 0 9 -8 5 -10 14 -5 22 10 17 12 59 2 53
-4 -3 -4 6 2 20 6 17 6 26 -3 29 -9 3 -9 8 2 20 10 13 10 17 1 17 -10 0 -10 3
-1 14 9 10 9 16 1 21 -8 5 -8 10 0 20 8 9 8 15 0 20 -5 3 -10 11 -10 16 0 6 3
8 8 6 4 -3 7 19 7 49 0 30 -3 54 -8 54 -4 0 -3 9 3 19 7 14 7 22 0 26 -8 5 -7
11 1 21 9 11 8 14 -2 14 -11 0 -11 2 1 10 10 6 11 10 2 10 -14 0 -12 21 3 32
6 5 6 8 -1 8 -9 0 -17 56 -16 113 1 9 -4 17 -10 17 -7 0 -6 5 1 14 8 10 8 15
1 18 -6 2 -11 20 -12 41 -1 20 -4 37 -8 37 -4 0 -7 6 -8 13 0 6 -3 23 -7 37
-4 14 -7 31 -7 38 -1 6 -5 12 -9 12 -7 0 -22 39 -20 53 1 4 -6 7 -15 7 -8 0
-12 5 -9 10 3 6 -1 10 -9 10 -9 0 -16 5 -16 10 0 6 -11 10 -25 10 -14 0 -25 4
-25 8 0 10 -36 9 -46 -1 -14 -13 -34 -7 -34 11 0 14 -2 15 -10 2 -8 -13 -10
-12 -10 3 0 10 -8 17 -20 17 -11 0 -20 5 -20 10 0 6 -9 10 -19 10 -11 0 -23 5
-26 10 -5 8 -11 7 -21 -1 -11 -9 -14 -9 -14 1 0 10 -3 10 -14 1 -10 -8 -16 -9
-21 -1 -3 5 -17 10 -31 10 -14 0 -23 3 -21 8 5 6 -30 11 -118 15 -16 1 -36 6
-44 11 -9 6 -12 5 -7 -2 4 -7 -35 -10 -129 -9 -84 1 -135 -2 -135 -8 0 -7 -3
-7 -8 0 -10 14 -74 16 -65 2 4 -6 1 -7 -7 -2 -19 12 -189 12 -194 0 -3 -7 -5
-7 -5 0 -1 6 -64 10 -171 9 -119 0 -167 3 -163 10 4 6 -1 5 -10 -3 -14 -11
-17 -11 -17 0 0 9 -3 10 -8 3 -9 -13 -300 -13 -321 0 -10 6 -12 6 -7 -2 9 -15
-83 -13 -103 2 -11 8 -13 8 -8 0 7 -12 -71 -14 -90 -1 -6 4 -14 3 -17 -1 -6
-10 -132 -9 -142 1 -4 4 -12 7 -18 7 -6 0 -5 -4 2 -9 9 -5 -5 -8 -36 -8 -29 1
-48 5 -45 11 4 5 1 6 -8 0 -21 -12 -120 -14 -112 -1 4 6 1 7 -8 1 -19 -12
-121 -13 -136 -1 -7 5 -13 5 -13 0 0 -12 -103 -11 -112 2 -5 6 -8 4 -8 -5 0
-13 -1 -13 -10 0 -5 8 -10 11 -10 5 0 -5 -16 -11 -35 -11 -23 -1 -32 2 -28 10
5 8 3 8 -8 0 -16 -12 -98 -12 -116 -1 -7 5 -13 5 -13 0 0 -4 -20 -8 -45 -9
-25 0 -45 3 -45 6 0 4 -7 7 -15 7 -8 0 -15 -3 -15 -7 0 -10 -44 -7 -51 4 -4 5
-13 5 -20 0 -20 -12 -38 -14 -45 -3 -3 6 -12 5 -21 -3 -19 -15 -23 -15 -34 4
-6 8 -12 9 -16 3 -9 -12 -48 -14 -58 -3 -4 4 -15 3 -24 -2 -10 -5 -23 -5 -31
0 -7 4 -24 4 -37 -1 -16 -6 -23 -5 -23 4 0 9 -3 8 -9 -1 -11 -18 -15 -19 -33
-5 -8 7 -18 10 -22 6 -11 -11 -46 -14 -46 -3 0 6 -9 6 -25 0 -16 -6 -25 -6
-25 0 0 6 -9 6 -25 0 -13 -5 -26 -6 -29 -2 -5 9 -74 7 -83 -2 -4 -3 -12 -1
-20 5 -7 6 -13 7 -13 2 0 -5 -7 -10 -15 -10 -8 0 -15 4 -15 9 0 5 -10 4 -21
-3 -16 -8 -20 -8 -14 1 6 9 3 9 -13 1 -15 -8 -23 -8 -28 0 -4 8 -9 7 -14 -2
-6 -9 -12 -10 -22 -1 -8 7 -19 7 -28 2 -9 -5 -19 -5 -27 2 -10 8 -13 7 -13 -3
0 -10 -3 -10 -12 -1 -7 7 -17 8 -30 1 -13 -7 -18 -6 -18 2 0 9 -3 9 -14 0 -10
-8 -16 -9 -21 -1 -4 6 -12 7 -24 0 -12 -6 -22 -5 -29 2 -9 9 -12 9 -12 -1 0
-7 -5 -9 -12 -5 -16 10 -48 13 -48 4 0 -6 -41 -5 -47 0 -8 7 -30 5 -45 -2 -12
-6 -18 -5 -18 2 0 6 -5 8 -12 3 -18 -11 -38 -13 -38 -3 0 8 -55 4 -71 -5 -5
-4 -9 -2 -9 3 0 5 -7 9 -15 9 -8 0 -15 -5 -15 -10 0 -5 -6 -4 -14 2 -10 8 -16
9 -21 1 -4 -7 -12 -7 -26 0 -14 8 -19 7 -19 -1 0 -8 -4 -8 -15 1 -12 10 -15
10 -15 -1 0 -9 -3 -10 -8 -4 -8 12 -51 13 -69 2 -6 -4 -14 -3 -17 2 -4 6 -18
6 -36 1 -19 -5 -28 -5 -25 1 7 10 -23 8 -42 -4 -6 -4 -14 -4 -17 1 -6 9 -47 8
-64 -2 -7 -4 -12 -3 -12 2 0 12 -53 10 -62 -3 -6 -7 -10 -7 -15 0 -9 12 -23
13 -40 2 -6 -4 -14 -3 -18 2 -7 12 -45 10 -45 -2 0 -4 -6 -5 -12 0 -18 11 -62
10 -70 -2 -5 -7 -11 -6 -15 0 -10 14 -143 13 -143 0 0 -6 -3 -6 -8 0 -9 14
-55 13 -64 0 -5 -6 -8 -6 -8 2 0 13 -57 13 -77 0 -7 -5 -13 -5 -13 0 0 4 -30
9 -68 9 -37 1 -98 4 -137 8 -38 3 -97 9 -130 12 -129 12 -295 73 -350 128 -30
31 -45 78 -32 102 17 32 85 90 135 115 25 13 52 29 59 34 7 6 18 15 25 21 7 5
21 13 31 17 9 3 17 11 17 17 0 5 7 10 16 10 8 0 33 18 55 40 21 21 39 36 39
33 0 -3 9 4 20 17 11 13 20 27 20 32 0 5 5 6 10 3 6 -3 10 -2 10 3 0 9 22 39
80 109 6 7 10 17 10 23 0 5 5 10 10 10 6 0 10 7 10 15 0 8 5 15 11 15 5 0 8 4
5 9 -3 5 1 11 9 15 9 3 12 12 8 22 -4 11 -3 15 4 11 7 -4 14 5 18 23 4 17 10
28 15 25 5 -3 7 3 6 12 -2 10 1 21 6 24 5 3 10 16 13 28 2 13 10 30 17 39 11
13 11 14 -2 7 -12 -7 -13 -6 -3 7 7 8 10 18 6 21 -3 4 -1 7 5 7 6 0 9 7 5 17
-4 9 -2 14 3 11 5 -4 9 4 10 15 1 12 4 49 8 82 12 103 12 120 2 127 -7 5 -6 8
2 8 8 0 10 5 6 12 -4 7 -9 21 -11 33 -5 37 -9 50 -21 72 -7 12 -12 27 -12 33
0 11 -33 62 -57 88 -13 13 -17 28 -14 45 1 5 -3 6 -8 3 -10 -6 -26 22 -22 39
2 5 -1 7 -4 3 -8 -8 -45 34 -45 51 0 6 -4 11 -10 11 -5 0 -10 7 -10 16 0 8 -4
12 -10 9 -5 -3 -10 0 -10 8 0 8 -11 22 -25 31 -15 10 -23 22 -19 29 4 7 4 9 0
5 -5 -4 -13 -2 -20 3 -56 47 -73 59 -83 59 -6 0 -13 4 -15 9 -1 5 -10 11 -18
13 -8 2 -21 9 -28 16 -8 7 -18 10 -23 7 -5 -4 -9 -1 -9 4 0 6 -8 11 -18 11
-10 0 -22 3 -26 7 -8 8 -34 14 -58 14 -10 0 -18 4 -18 10 0 5 -8 9 -18 9 -23
0 -72 22 -72 33 0 5 -4 6 -9 2 -5 -3 -12 -1 -16 5 -4 6 -11 8 -16 5 -5 -4 -9
-1 -9 4 0 6 -3 10 -7 10 -27 -4 -63 3 -58 11 3 5 0 7 -8 4 -8 -3 -18 -1 -21 5
-4 6 -13 8 -21 4 -8 -3 -23 -2 -32 2 -10 5 -29 10 -43 12 -14 2 -32 6 -40 10
-17 7 -25 8 -90 19 -25 4 -52 9 -60 11 -8 1 -25 4 -37 5 -13 1 -23 6 -23 10 0
4 -13 6 -30 4 -16 -2 -30 0 -30 4 0 4 -12 5 -26 2 -16 -3 -30 1 -35 9 -5 8 -9
9 -9 3 0 -6 -7 -11 -15 -11 -8 0 -15 5 -15 10 0 5 -7 4 -15 -3 -9 -8 -15 -8
-15 -2 0 7 -10 8 -28 2 -16 -4 -36 -4 -45 2 -10 5 -17 5 -17 1 0 -5 -72 -8
-160 -9 -88 0 -160 3 -160 7 0 4 -16 3 -35 -1 -19 -4 -35 -4 -35 0 0 5 -13 5
-29 0 -20 -5 -31 -5 -34 3 -2 7 -5 8 -10 1z"/>
</g>
</svg>
